<svg width="32" height="32" viewBox="0 0 32 32" fill="none" xmlns="http://www.w3.org/2000/svg">
  <defs>
    <linearGradient id="bb-pitch" x1="0" y1="0" x2="1" y2="1">
      <stop offset="0" stop-color="#16c07a"/>
      <stop offset="1" stop-color="#0a6b49"/>
    </linearGradient>
  </defs>
  <rect width="32" height="32" rx="8" fill="url(#bb-pitch)"/>
  <g transform="translate(-1.2 0.2) scale(1.32)">
    <rect x="4" y="3.8" width="2.6" height="16.4" rx="1.3" fill="#fff"/>
    <path d="M5.3 4.4a3.3 3.3 0 0 1 0 6.7" fill="none" stroke="#fff" stroke-width="2.9" stroke-linecap="round"/>
    <path d="M5.3 11a3.6 3.6 0 0 1 0 7.2" fill="none" stroke="#fff" stroke-width="2.9" stroke-linecap="round"/>
    <rect x="12.9" y="3.8" width="2.6" height="16.4" rx="1.3" fill="#fff"/>
    <path d="M14.2 4.4a3.3 3.3 0 0 1 0 6.7" fill="none" stroke="#fff" stroke-width="2.9" stroke-linecap="round"/>
    <path d="M14.2 11a3.6 3.6 0 0 1 0 7.2" fill="none" stroke="#fff" stroke-width="2.9" stroke-linecap="round"/>
    <circle cx="20.6" cy="18.4" r="1.7" fill="#ffc23c"/>
  </g>
</svg>
